<svg version="1.2" xmlns="http://www.w3.org/2000/svg" viewBox="0 0 1334 1167" width="1334" height="1167">
    <title>New Project</title>
    <style>
        .s0 { opacity: 1;fill: #000000 }
    </style>
    <path id="Path 0" fill-rule="evenodd" class="s0"
          d="m374 0.5c19.3 0.2 28.6 0.8 38.5 2.3 7.1 1.1 17.3 3 22.5 4.1 5.2 1.2 15.6 3.9 23 6.2 7.4 2.2 18.7 6.1 25 8.6 6.3 2.5 17.8 7.5 25.5 11.2 7.7 3.7 19 9.6 25 13 6 3.5 16.2 9.7 22.5 13.8 6.3 4.2 15.3 10.3 20 13.6 4.7 3.4 13.9 10.4 20.5 15.6 6.6 5.2 16.7 13.5 22.5 18.5 5.7 5 14.1 12.7 18.5 17.1 4.4 4.4 12.5 13.6 18 20.4 5.5 6.9 10.5 12.6 11 12.8 0.5 0.2 5.7-5.3 11.4-12.4 5.7-7 15-17.3 20.5-22.8 5.6-5.5 16-14.9 23.1-20.9 7.2-5.9 18.9-15.2 26-20.6 7.1-5.3 17.7-12.9 23.5-16.8 5.8-3.9 15.5-10.1 21.5-13.7 6-3.7 19.5-10.9 30-16 10.5-5.1 25.1-11.6 32.5-14.4 7.4-2.7 18.9-6.5 25.5-8.5 6.6-1.9 18.1-4.6 25.5-6.1 7.4-1.4 20-3.3 28-4.2 11-1.1 20.5-1.4 39-1 13.5 0.3 30.3 1.3 37.5 2.2 7.2 0.8 19.5 2.7 27.5 4.1 8 1.4 20.6 4.1 28 6 7.4 1.9 19.6 5.5 27 8 7.4 2.5 18.9 6.8 25.5 9.6 6.6 2.7 16.8 7.4 22.8 10.4 5.9 3 15.5 8.3 21.4 11.8 6 3.5 15.8 9.9 21.8 14.1 6 4.3 15.7 11.6 21.5 16.3 5.8 4.8 16.2 14.3 23.1 21.2 6.9 6.9 15.9 16.6 20 21.5 4.1 4.9 10.9 13.7 15.1 19.5 4.2 5.8 11.3 16.6 15.8 24 4.4 7.4 11 19.4 14.4 26.5 3.5 7.1 8.9 19.3 11.9 27 3.1 7.7 7.2 19.4 9.2 26 2 6.6 5 17.4 6.6 24 1.6 6.6 4 18.8 5.4 27 1.4 8.3 3 19.3 3.5 24.5 0.6 5.2 1.5 18 1.9 28.5 0.5 10.5 0.5 27.5 0 38-0.5 10.5-1.3 23.3-1.9 28.5-0.6 5.2-2.2 16.3-3.6 24.5-1.3 8.3-4.3 22.4-6.5 31.5-2.2 9.1-6.7 24.4-9.9 34-3.2 9.6-8.5 23.8-11.6 31.5-3.2 7.7-10.1 22.5-15.4 33-5.3 10.5-13.8 26-18.9 34.5-5.2 8.5-13.6 21.8-18.9 29.5-5.2 7.7-12.9 18.5-17.1 24-4.1 5.5-11.1 14.5-15.5 20-4.4 5.5-10.5 12.9-13.5 16.5-3.1 3.6-11.4 13-18.5 21-7.1 8-24.4 26-38.5 40-14.1 14-35.1 34-46.6 44.4-11.5 10.4-30.2 26.9-41.5 36.5-11.3 9.7-28.4 24.2-38 32.2-9.6 8-36.4 30-59.5 48.9-23.1 18.9-51.2 42.1-62.5 51.4-11.3 9.4-28.1 23.6-37.5 31.6-9.4 8.1-23.8 20.6-32 27.9-8.3 7.4-24.8 22.6-36.9 34-12 11.3-28.9 28-37.5 37.1-8.6 9.1-21.9 23.7-29.6 32.4-7.7 8.7-16 17.3-18.5 19.1-2.5 1.8-6.9 4.4-9.8 5.9-2.8 1.4-8 3.3-11.5 4.2-3.7 1-10 1.7-15.7 1.6-7.6 0-11.1-0.5-17.5-2.7-4.4-1.4-9.6-3.6-11.5-4.7-1.9-1.2-5.5-3.7-7.9-5.7-2.5-2-10.6-10.6-18-19.1-7.5-8.5-24.4-26.5-37.6-39.9-13.2-13.4-31.6-31.4-41-40.1-9.4-8.6-22.9-20.8-30-27.1-7.1-6.3-19.3-16.9-27-23.5-7.7-6.6-22.1-18.7-32-27-9.9-8.3-39.4-32.5-65.5-53.9-26.1-21.4-57.2-47-69-56.9-11.8-9.9-29.6-25.1-39.5-33.7-9.9-8.5-25.2-22-34-30-8.8-7.9-29.1-27.4-45.1-43.4-16-15.9-34.5-35.1-41-42.5-6.6-7.4-16.5-18.9-22-25.5-5.5-6.6-15.5-19.4-22.3-28.5-6.8-9.1-17-23.5-22.6-32-5.6-8.5-13.7-21.6-18-29-4.3-7.4-11.2-20.5-15.5-29-4.3-8.5-9.8-20.2-12.3-26-2.4-5.8-6.7-16.6-9.5-24-2.7-7.4-7-20.5-9.5-29-2.5-8.5-5.9-21.8-7.5-29.5-1.7-7.7-4-20.1-5.1-27.5-1.1-7.4-2.5-18.9-3.2-25.5-0.7-6.6-1.3-24.1-1.3-39 0-14.9 0.6-32.9 1.2-40 0.7-7.1 2.4-20 3.7-28.5 1.3-8.5 3.6-20.9 5-27.5 1.5-6.6 4.3-17.4 6.2-24 1.9-6.6 5.6-17.9 8.3-25 2.7-7.1 7.3-18.4 10.3-25 3-6.6 8.7-17.9 12.7-25 4-7.1 10.8-18.2 15.1-24.5 4.2-6.3 11.7-16.4 16.5-22.5 4.8-6.1 15.3-17.5 23.3-25.5 8.1-8 19.5-18.5 25.6-23.3 6.1-4.9 17.3-13 25-18.1 7.7-5.2 18.9-12.1 25-15.4 6.1-3.4 16.4-8.5 23-11.5 6.6-3 18.1-7.8 25.5-10.5 7.4-2.8 19.8-6.9 27.5-9.1 7.7-2.2 20.3-5.4 28-7 7.7-1.6 20.8-3.9 29-5.1 8.3-1.1 19.9-2.4 26-2.9 6.1-0.5 22.5-0.8 36.5-0.6zm-37.5 122.6c-6.1 0.6-16.9 2.2-24 3.6-7.1 1.4-18.2 4-24.5 5.8-6.3 1.8-16.7 5.4-23 8-6.3 2.5-16.2 7.1-22 10.2-5.8 3-14.3 8-19 11-4.7 3.1-12.8 9-18 13.2-5.2 4.2-13.9 12.1-19.4 17.6-5.4 5.5-12.9 14.1-16.6 19-3.8 4.9-9.4 13.1-12.5 18-3.1 4.9-8.1 13.9-11 20-2.9 6.1-7.2 16.4-9.5 23-2.3 6.6-5.5 17.4-7.1 24-1.6 6.6-3.8 18.3-5 26-1.1 7.7-2.4 21.9-2.8 31.5-0.4 9.6-0.4 24.9 0 34 0.5 9.1 1.6 21.5 2.4 27.5 0.9 6 2.8 16.4 4.2 23 1.4 6.6 4.3 17.9 6.5 25 2.2 7.1 6 18.2 8.5 24.5 2.5 6.3 7.3 17.4 10.7 24.5 3.4 7.1 9.7 19.1 14.1 26.5 4.3 7.4 11.4 18.9 15.8 25.5 4.5 6.6 12.3 17.6 17.6 24.5 5.2 6.9 12.6 16.3 16.5 21 3.9 4.7 10.2 12.1 14.1 16.5 3.8 4.4 14 15.4 22.5 24.4 8.5 9.1 24.3 24.8 35 34.9 10.7 10.2 29.4 27.3 41.5 38.1 12.1 10.8 34.4 30.2 49.5 43.2 15.1 12.9 45.5 38.8 67.5 57.4 22 18.7 48.1 40.9 58 49.4 9.9 8.6 26.1 22.8 36 31.6 9.9 8.7 25.9 23.1 35.4 32 9.6 8.8 24.5 22.7 33 30.8 8.6 8.1 24.7 24.1 35.8 35.5l20.2 20.7c26.2-27.1 45-45.6 58.7-58.6 13.7-13 32.3-30.3 41.4-38.6 9.1-8.2 27.8-24.8 41.6-36.9 13.7-12 42.5-36.7 63.9-54.9 21.4-18.2 56-47.7 76.9-65.6 21-17.9 45.8-39.4 55.1-47.8 9.3-8.5 26.2-24 37.5-34.7 11.3-10.6 28.4-27.8 38.2-38.1 9.7-10.3 20.9-22.6 25-27.3 4-4.7 10.9-13 15.4-18.5 4.4-5.5 11.2-14.3 15.1-19.5 3.8-5.2 10.6-14.9 15-21.5 4.4-6.6 10.4-16 13.3-21 2.9-5 8.5-15.5 12.5-23.5 4-8 8.9-18.4 10.9-23.2 2-4.9 5.4-14.1 7.7-20.5 2.2-6.5 5.5-17.9 7.4-25.3 1.8-7.4 4-17.3 4.9-22 0.8-4.7 2.1-13 2.8-18.5 0.8-6.2 1.3-20.8 1.3-38.5 0-17.4-0.5-32.6-1.3-39-0.7-5.8-2.4-15.9-3.7-22.5-1.3-6.6-3.8-16.7-5.4-22.5-1.7-5.8-4.8-15-6.9-20.5-2.2-5.5-6.1-14.3-8.7-19.5-2.6-5.2-7-13.1-9.8-17.5-2.8-4.4-7.7-11.6-11.1-16-3.3-4.4-10.3-12.5-15.6-17.9-5.2-5.4-13.5-13.3-18.5-17.4-5-4.1-12.8-10.1-17.5-13.2-4.7-3.1-12.1-7.7-16.5-10.2-4.4-2.5-12.7-6.7-18.5-9.3-5.8-2.6-17-6.9-25-9.5-8-2.7-20.1-6-27-7.4-6.9-1.4-17.8-3.3-24.3-4.1-6.4-0.8-18.8-1.8-27.5-2.1-10-0.4-19.5-0.2-26.2 0.5-5.8 0.7-14.5 2.2-19.5 3.3-5 1.1-14.1 3.8-20.3 5.9-6.1 2.2-16 6.1-22 8.7-5.9 2.6-16.6 8.1-23.7 12.1-7.1 4.1-19.1 11.5-26.5 16.5-7.4 5-17.8 12.4-23 16.5-5.2 4.1-14 11.2-19.5 16-5.5 4.7-17.1 15.5-25.9 24.1-8.7 8.5-20.8 21.1-27 27.9-6.1 6.8-15.8 18.3-21.6 25.4-8.3 10.4-12.1 14.2-18 18.2-4.1 2.8-10.4 6.2-14 7.4-4.5 1.6-9.7 2.5-17 2.8-7.9 0.4-12.1 0.1-17-1.1-3.6-0.9-9.2-2.9-12.5-4.5-3.3-1.5-8.3-4.6-11-6.7-2.8-2.2-8.8-8.7-13.4-14.4-4.7-5.8-13-15.7-18.5-22-5.6-6.3-14.6-16.2-20.1-21.9-5.5-5.7-15.4-15.4-22-21.5-6.6-6.1-16.9-15.2-22.9-20.1-5.9-4.9-16.3-13.1-23.1-18-6.8-4.9-17-11.9-22.7-15.4-5.7-3.6-14.3-8.6-19.3-11.3-5-2.7-13.5-7-19-9.5-5.5-2.5-15.5-6.6-22.3-8.9-6.7-2.4-17.7-5.5-24.5-7-9.6-2-15.8-2.6-29.2-2.9-9.4-0.1-18.8-0.1-21 0.1-2.2 0.2-8.9 0.9-15 1.5z"/>
</svg>