<svg version="1.2" xmlns="http://www.w3.org/2000/svg" viewBox="0 0 1334 1167" width="1334" height="1167">
    <title>Path 0 copy</title>
    <style>
        .s0 { fill: #010001 }
        .s1 { fill: #ff63ca }
    </style>
    <g id="Path 0 copy">
        <path id="Path 0" class="s0"
              d="m363.5 0.1c14.5-0.1 28.3 0.4 37.5 1.4 8 0.9 19.9 2.6 26.5 4 6.6 1.3 19 4.4 27.5 6.9 8.5 2.4 20 6.2 25.5 8.4 5.5 2.2 15.6 6.6 22.5 9.7 6.9 3.1 16.3 7.7 21 10.3 4.7 2.5 13.7 7.7 20 11.6 6.3 3.8 17.1 10.8 24 15.5 6.9 4.6 18.8 13.4 26.5 19.5 7.7 6.1 17.8 14.4 22.5 18.4 4.7 4.1 12.9 11.7 18.4 17 5.4 5.4 14.5 15.4 20.2 22.5 5.7 7 10.6 12.7 10.9 12.7 0.3 0 6-6.4 12.8-14.2 6.7-7.8 15.6-17.6 19.7-21.6 4.1-4.1 11.9-11.3 17.4-16.1 5.4-4.7 17.1-14.2 26-21 8.8-6.8 21.3-15.8 27.6-20.1 6.3-4.2 16-10.4 21.5-13.7 5.5-3.3 17.2-9.7 26-14.1 8.8-4.4 21.4-10.3 28-13 6.6-2.8 17.6-6.9 24.5-9.2 6.9-2.2 17-5.2 22.5-6.5 5.5-1.3 15.4-3.3 22-4.4 6.6-1.1 15.8-2.5 20.5-3.1 4.7-0.5 18.9-1 31.5-1 12.6 0 26.8 0.5 31.5 1.1 4.7 0.6 16.6 2.2 26.5 3.6 9.9 1.3 23.8 3.8 31 5.4 7.2 1.6 17.7 4.4 23.5 6 5.8 1.7 16.3 5.3 23.5 7.9 7.2 2.7 18.6 7.4 25.5 10.5 6.9 3 16.3 7.6 21 10.2 4.7 2.5 13.2 7.5 19 11.1 5.8 3.6 14.3 9.3 19 12.6 4.7 3.3 12.1 9 16.5 12.5 4.4 3.5 12.2 10.3 17.3 15 5.1 4.7 14 13.8 19.7 20.1 5.7 6.3 14.1 16.4 18.7 22.5 4.6 6.1 11.9 16.6 16.3 23.5 4.3 6.9 10.9 18.3 14.6 25.5 3.8 7.2 9.1 18.4 11.9 25 2.9 6.6 7.2 17.8 9.7 25 2.4 7.2 5.9 18.6 7.8 25.5 1.9 6.9 4.5 18.4 5.9 25.5 1.3 7.1 3.2 17.9 4 24 0.9 6.1 2 16.9 2.6 24 0.6 7.1 1.3 18.9 1.6 26 0.4 8.4 0.1 20.9-1 35.5-0.9 12.4-2.8 29.5-4.1 38-1.3 8.5-3.7 21.6-5.4 29-1.6 7.4-4.6 18.9-6.5 25.5-1.9 6.6-5.8 18.8-8.7 27-2.8 8.3-7.1 19.5-9.4 25-2.4 5.5-7.3 16.1-10.9 23.5-3.6 7.4-10.3 20.3-14.9 28.5-4.6 8.3-12.6 21.5-17.7 29.5-5.2 8-14 20.8-19.5 28.5-5.5 7.7-15.3 20.5-21.6 28.5-6.4 8-17.4 21-24.4 29-7 8-23.6 25.5-36.9 39-13.3 13.5-31.8 31.7-41.2 40.5-9.3 8.8-25.8 23.7-36.5 33.1-10.6 9.3-27.9 24.2-38.4 33.1-10.5 8.8-31.8 26.5-47.6 39.4-15.7 12.9-41.1 33.7-56.5 46.4-15.3 12.6-37.8 31.2-49.9 41.4-12.1 10.2-30.3 25.7-40.5 34.5-10.1 8.9-25 22.1-33 29.5-8 7.4-22.6 21.3-32.5 31-9.9 9.7-22.5 22.3-28 28.1-5.5 5.8-14.2 15.3-19.4 21-5.1 5.8-13.3 14.5-18.1 19.5-7.1 7.2-10.5 9.8-17.2 13.2-4.5 2.3-11.3 4.9-15 5.7-3.8 0.9-8.9 1.6-11.5 1.6-2.7 0-7.7-0.7-11.3-1.5-3.6-0.9-9-2.5-12-3.6-3-1.1-8.2-4-11.5-6.3-3.3-2.4-7.5-6.1-9.4-8.2-1.9-2.1-7.7-8.6-13-14.4-5.3-5.8-19.1-20.3-30.6-32.4-11.5-12-28.4-28.9-37.5-37.5-9.1-8.6-21.2-19.9-27-25.2-5.8-5.2-12.1-10.8-14.1-12.5-1.9-1.6-12.7-10.8-24-20.4-11.2-9.7-27.4-23.4-35.9-30.6-8.5-7.1-31.9-26.4-52-42.9-20.1-16.4-39-32-42-34.5-3-2.6-14.7-12.2-26-21.5-11.3-9.3-28.4-23.6-38-31.9-9.6-8.3-25.4-22-35-30.6-9.6-8.5-27.8-25.5-40.5-37.7-12.6-12.1-31.6-31.3-42.2-42.5-10.5-11.1-23.8-25.7-29.5-32.4-5.7-6.6-14.8-17.9-20.3-25-5.5-7.1-13-16.9-16.6-21.9-3.6-5-10.2-14.4-14.6-21-4.4-6.6-11.3-17.4-15.3-24-4-6.6-11.5-20.1-16.6-30-5.1-9.9-11.7-23.6-14.7-30.5-3-6.9-7.7-18.8-10.5-26.5-2.8-7.7-6.6-19.2-8.5-25.5-1.9-6.3-4.9-17.1-6.6-24-1.6-6.9-4.1-19.3-5.5-27.5-1.4-8.3-3.2-20.9-4-28-0.8-7.1-1.7-20.9-2.1-30.5-0.3-9.6-0.2-26.5 0.4-37.5 0.6-11 1.7-25.2 2.6-31.5 0.8-6.3 2.4-16.9 3.5-23.5 1.2-6.6 3.7-18.5 5.6-26.5 2-8 5.3-19.7 7.4-26 2.1-6.3 5.7-16.4 8.1-22.5 2.4-6.1 8-18.4 12.5-27.5 4.5-9.1 11.8-22.1 16.1-29 4.3-6.9 11.7-17.7 16.5-24 4.7-6.3 13.5-16.7 19.5-23 5.9-6.3 15.1-15.5 20.3-20.4 5.2-4.9 12.7-11.4 16.5-14.5 3.9-3.1 10.2-7.9 14-10.7 3.9-2.8 11.9-8.1 18-11.9 6.1-3.8 15.9-9.5 22-12.8 6.1-3.2 17.1-8.5 24.5-11.6 7.4-3.2 17.8-7.4 23-9.4 5.2-2 16.7-5.6 25.5-8.1 8.8-2.4 21.6-5.6 28.5-7 6.9-1.4 17.4-3.2 23.5-4.1 6.1-0.9 15.7-2.2 21.5-2.9 5.8-0.8 20.8-1.4 33.5-1.5z"/>
        <path id="Path 1" class="s1"
              d="m369.5 121.5c9.9 0.2 21.8 1.1 26.5 1.9 4.7 0.9 13.4 2.9 19.5 4.7 6.1 1.7 15.4 4.9 20.8 7 5.3 2.2 14.8 6.4 20.9 9.5 6.2 3.1 16.7 8.8 23.3 12.7 6.6 3.9 17.6 11.2 24.5 16.1 6.9 4.9 17 12.6 22.5 17 5.5 4.4 15.9 13.3 23 19.7 7.1 6.4 18.6 17.4 25.5 24.5 6.9 7.1 18.1 19.5 24.9 27.4 6.7 8 15.5 18.3 19.5 22.8 3.9 4.6 9.1 9.7 11.6 11.2 2.5 1.6 7 4 10 5.4 3 1.4 8.2 3.2 11.5 4.1 3.3 0.8 9.1 1.5 13 1.5 3.9 0 10.1-0.7 14-1.6 3.9-0.8 10.1-3.1 14-5.2 4.4-2.3 9.7-6.3 14-10.7 3.9-3.8 13.3-14.4 20.9-23.5 7.7-9.1 23.4-26 35-37.6 11.6-11.5 26.3-25.3 32.6-30.5 6.3-5.2 15.1-12.2 19.5-15.5 4.4-3.3 12.3-8.9 17.5-12.5 5.2-3.6 14-9.3 19.5-12.6 5.5-3.3 14.5-8.4 20-11.3 5.5-2.8 16.1-7.6 23.5-10.5 7.4-2.8 16.9-6.2 21-7.4 4.1-1.3 12.2-3.2 18-4.2 5.8-1.1 16.4-2.2 23.5-2.6 7.5-0.3 18.7-0.1 26.5 0.6 7.4 0.7 19.1 2.1 26 3.2 6.9 1.1 17.9 3.4 24.5 5.1 6.6 1.7 18.1 5.3 25.5 8 7.4 2.8 18.5 7.5 24.5 10.6 6 3 14.8 7.8 19.5 10.7 4.7 2.9 12.1 8.1 16.5 11.4 4.4 3.4 12.5 10.4 18 15.5 5.5 5.1 13.6 13.5 17.9 18.7 4.4 5.2 11.1 14.1 14.9 19.9 3.8 5.8 9.7 16.4 13.2 23.5 3.6 7.1 8.6 19.8 11.4 28 2.7 8.3 6.1 20.6 7.5 27.5 1.4 6.9 3.3 17 4.1 22.5 1.1 7.3 1.5 19 1.5 43 0 27.4-0.3 35.2-1.9 46-1.1 7.1-3.1 18.2-4.6 24.5-1.4 6.3-4.1 16.8-6 23.3-1.9 6.4-5.8 17.7-8.7 25-2.8 7.2-9.1 21.1-13.9 30.7-4.8 9.6-12 22.7-15.9 29-4 6.3-11.7 18-17.3 26-5.6 8-14 19.2-18.6 25-4.6 5.8-11.8 14.5-16 19.5-4.2 4.9-11.4 13-16 18-4.7 4.9-17 17.7-27.5 28.3-10.5 10.7-27.4 27.1-37.6 36.6-10.2 9.5-27.5 25.1-38.5 34.7-11 9.6-27.7 24-37 32-9.4 8.1-24 20.6-32.5 27.9-8.5 7.2-19.3 16.4-24 20.4-4.7 3.9-14.8 12.5-22.5 19.1-7.7 6.6-23.5 20-35 29.9-11.5 9.9-26.6 23-33.5 29.1-6.9 6-18.8 16.6-26.5 23.5-7.7 6.8-23.2 21-34.5 31.5-11.3 10.4-33.1 31.5-76.5 74.6l-27.5-27.8c-15.2-15.3-38.6-37.9-52-50.3-13.5-12.4-30.8-28.2-38.5-35.1-7.7-6.8-22.8-20.1-33.5-29.4-10.8-9.4-29.7-25.6-42-36.1-12.4-10.6-42.7-36.4-67.5-57.5-24.7-21-50.4-43-57-48.8-6.6-5.8-22.6-20.3-35.5-32.1-12.9-11.8-29.1-26.9-35.9-33.5-6.8-6.6-19.4-19.6-28.1-29-8.7-9.4-19.8-21.7-24.7-27.5-4.9-5.8-13.1-15.9-18.2-22.5-5.2-6.6-13.1-17.4-17.6-24-4.6-6.6-11.4-17.2-15.3-23.5-3.8-6.3-9.9-17.1-13.5-24-3.6-6.9-9-18.4-12-25.5-3.1-7.1-7.3-18.4-9.5-25-2.2-6.6-5.4-17.4-7.1-24-1.6-6.6-3.9-17.4-5-24-1.2-6.6-2.5-17.2-3.1-23.5-0.5-6.3-1-20.4-1-31.2 0-10.9 0.7-26.4 1.5-34.5 0.8-8.2 2.7-20.7 4.1-27.8 1.4-7.1 4.3-18.6 6.4-25.5 2.1-6.9 5.9-17.3 8.4-23.2 2.5-6 6.9-15 9.7-20 2.8-5.1 8.6-14.2 12.8-20.3 5.2-7.5 12.3-15.7 22.6-26.1 8.3-8.2 19.3-18.2 24.5-22.1 5.2-3.9 13.8-9.7 19-12.8 5.2-3.1 14.6-8.1 20.8-11.1 6.1-3 17.2-7.4 24.5-9.9 7.2-2.5 20-6.1 28.2-8 8.3-1.8 18.8-3.8 23.5-4.5 4.7-0.6 11.9-1.5 16-2 4.1-0.5 15.6-0.7 25.5-0.5z"/>
    </g>
</svg>