<svg version="1.2" xmlns="http://www.w3.org/2000/svg" viewBox="0 0 512 512" width="512" height="512">
    <title>New Project</title>
    <style>
        .s0 { fill: #85dbfe }
        .s1 { fill: #000000 }
        .s2 { fill: #fec2fb }
    </style>
    <g id="Folder 1">
        <path id="Path 0" class="s0"
              d="m166.4 222l2.3 2.2c2.2 2.2 2.2 2.4 0.5 4.4-0.9 1.2-6.6 8.6-12.7 16.5-6 7.9-14.9 19.6-19.9 25.9-4.9 6.3-13.5 16.6-19 22.9-5.6 6.2-14.2 14.9-19.1 19.3-5 4.4-13.3 11.3-18.5 15.2-5.2 4-17.6 12.8-27.5 19.6-9.9 6.7-20 13.9-22.4 15.9-2.5 2-5.3 5-6.2 6.6-1 1.6-2.1 4.5-2.4 6.3-0.3 1.7-0.1 4.9 0.4 7 0.6 2.1 3 6 5.8 9.1 2.6 3 6.4 6.4 8.3 7.6 1.9 1.2 22.2 20.6 45 43.1 26.3 25.9 43 41.6 45.5 42.8 2.8 1.3 5.1 1.7 7.7 1.2 2.1-0.3 5-1.2 6.4-1.8 1.4-0.7 4.9-4.7 7.8-8.8 2.9-4.1 10-14.2 15.7-22.5 5.7-8.2 14.8-20.6 20.3-27.5 5.5-6.9 15.2-17.7 21.6-24 6.3-6.3 16-15.2 21.5-19.8 5.5-4.6 19.8-15.8 31.7-24.8 12-9 23-17 24.4-17.6 2.4-1.2 2.8-1 5 1.5 2.3 2.6 2.3 2.8 0.6 4.8-0.9 1.2-10.3 8.7-20.7 16.7-10.4 8-25.3 19.6-33 25.7-7.7 6.2-15.2 12.6-16.8 14.3-2.2 2.6-2.7 4.2-2.7 8.2 0 4.3-0.5 5.5-3.3 8.5-2.8 3-3.8 3.4-8.2 3.5-4.5 0.1-5.4 0.5-8.3 3.8-1.8 2-8.1 10.5-14 18.8-5.9 8.4-14.5 20.7-19.2 27.5-4.7 6.8-10.4 14.3-12.8 16.6-3.1 3.2-5.8 4.7-10 5.9-3.4 1-7.5 1.4-10.2 1.1-2.5-0.2-6.3-1.3-8.5-2.3-2.7-1.3-18.4-16.4-48.7-46.9-24.5-24.7-46.9-47.7-49.7-51-3.5-4.1-5.7-7.8-6.7-11.5-1.1-3.5-1.4-7.1-1-9.7 0.3-2.4 1.4-6 2.5-8 1-2.1 3.8-5.5 6.2-7.6 2.4-2.1 11.1-8.4 19.4-14 8.2-5.6 20.2-14.1 26.5-18.8 6.3-4.7 15.8-12 21-16.2 5.2-4.2 10.2-8.4 11-9.3 0.8-1 5.8-6.7 11.1-12.8 5.2-6.1 14.5-17.4 20.5-25.1 6.1-7.7 15.9-20.4 21.9-28.3z"/>
        <path id="Path 0" class="s1"
              d="m439.3 0c2.2 0 6.7 3.8 22.9 19.3 11.2 10.7 26.3 25.8 33.5 33.5 9.7 10.3 13.5 15.1 13.9 17.4 0.4 1.8 0.4 4.5 0 6.1-0.3 1.5-2.8 5.3-5.4 8.5-2.7 3.1-10 10.4-27.7 26.5l-12-1.3-5.6 5.7c-3.1 3.2-7.7 8.4-10.3 11.6-2.5 3.1-6.8 10.1-9.5 15.5-2.6 5.3-7.3 16.5-10.4 24.7-3 8.3-8.6 23.6-12.3 34-3.7 10.4-8.7 23.7-11.1 29.5-2.4 5.8-6.7 14.6-9.5 19.5-2.8 4.9-8.3 13.3-12.2 18.5-3.9 5.2-11.6 14.9-17.1 21.5-5.5 6.6-16.5 18.6-24.5 26.6-8 8-19.9 19.2-26.5 25-6.6 5.7-21.2 17.6-32.5 26.4-11.3 8.7-27.7 21.6-36.5 28.6-8.8 6.9-17.8 13.8-20 15.3-2.2 1.5-5.2 2.6-6.8 2.6-1.6 0-2.9-0.7-3.3-1.8-0.4-0.9-0.4-3.2 0-5 0.4-2.4 2.5-4.8 8.3-9.8 4.3-3.6 20.6-16.6 36.2-28.8 15.6-12.1 28.6-22.8 28.9-23.6 0.3-0.8 0-2.2-0.5-3-0.6-0.8-1.8-1.9-2.6-2.5-1.2-0.8-2.8-0.2-6.4 2.4-2.6 1.9-11.1 8.2-18.8 14-7.7 5.7-19.2 14.6-25.5 19.6-6.3 5-15.8 13.1-21 18-5.2 4.9-13.3 13-17.9 17.9-4.6 5-11.5 13.2-15.4 18.1-3.8 4.9-13.2 18-21 29-7.7 11-15.4 21.5-17.1 23.3-1.7 1.8-4.9 3.7-7.1 4.3-2.8 0.8-5.1 0.8-7.5 0.1-2.5-0.8-9.5-6.8-23.8-20.4-11.1-10.6-30.5-29.2-43.1-41.3-12.6-12.1-26-24.9-29.9-28.5-4.8-4.4-7.7-8.1-9.2-11.5-1.5-3.5-2-6.1-1.6-8.5 0.3-1.9 1.9-5.3 3.4-7.5 1.6-2.2 7.9-7.5 14.3-12.1 6.3-4.4 17.7-12.5 25.4-17.9 7.7-5.4 18.7-13.7 24.5-18.4 5.8-4.7 14.3-12.4 18.9-17.1 4.6-4.7 12.5-13.4 17.6-19.5 5.1-6.1 17-21.1 26.5-33.5 9.5-12.4 17.5-23.2 17.7-24 0.3-0.8-0.4-2.3-1.4-3.2-1.7-1.6-2.3-1.1-12.3 11.9-5.8 7.6-15.9 20.5-22.4 28.8-6.6 8.2-16.5 20.3-22 26.8-7.6 8.9-13.7 14.7-24.6 23.4-8 6.4-20.6 15.9-28 21.1-7.4 5.3-18.6 13.2-24.9 17.6-6.3 4.5-12.6 9.7-14 11.6-1.5 1.9-3.2 5.7-3.9 8.5-1 3.7-1 6.3-0.3 10 0.6 2.7 2.5 7.2 4.3 10 1.8 2.7 24.8 26.7 51.3 53.2 46.3 46.5 48.2 48.2 53.5 49.8 3.8 1.1 7.1 1.4 10.5 0.9 2.7-0.4 6.6-1.5 8.5-2.4 1.9-1 5.3-3.7 7.5-6.1 2.3-2.4 7.4-9.1 11.5-14.9 4-5.8 12.6-17.9 19-27 6.4-9.1 13.1-18 14.9-19.8 2.2-2.1 4.2-3.2 6.2-3.2 1.6 0 3.6 0.7 4.4 1.5 0.8 0.8 1.5 2.4 1.5 3.5 0 1.1-6.9 11.6-15.3 23.3-8.3 11.7-18.8 26.4-23.2 32.6-4.4 6.3-9.9 13.1-12.3 15.2-2.3 2.2-7.8 5.7-12.2 7.9-6.4 3.2-9.1 4-13.5 4-4.3 0-7-0.8-12.3-3.4-3.7-1.9-10.3-6.5-14.7-10.2-4.4-3.7-25.8-24.6-47.6-46.4-21.7-21.7-42.4-42.9-46-47.1-4.2-5-6.9-9.2-7.9-12.5-0.9-2.9-1.5-8.8-1.5-14.4 0-8.6 0.3-10.1 3-15.4 1.7-3.2 5.2-7.9 8-10.5 2.7-2.6 12.9-10.3 22.5-17 9.6-6.8 22.4-16.1 28.5-20.7 6-4.5 15.5-12.2 20.9-17.1 5.5-4.8 14.2-13.7 19.4-19.8 5.2-6.1 16.5-20 25-31 8.6-11 20.1-25.6 25.6-32.5 5.5-6.9 15.3-18.4 21.7-25.5 6.4-7.2 16-17.3 21.5-22.4 5.4-5.2 14.8-13.7 20.9-18.9 6.1-5.2 15.9-13.1 22-17.7 6.1-4.5 14.6-10.3 19-12.9 4.4-2.5 12.7-6.6 18.5-9.1 5.8-2.4 23.6-9.1 39.5-14.8 15.9-5.8 32.6-11.9 37-13.7 4.4-1.7 11.8-5.2 16.5-7.6 5.7-2.9 12-7.5 30-23.4l-0.6-5.3c-0.4-3.1-0.2-6.1 0.5-7.5 0.6-1.2 3.9-5.4 7.3-9.4 3.5-4 11-11.4 16.8-16.5 7.8-6.9 11.2-9.3 13.2-9.3z"/>
        <path id="Path 2" class="s0"
              d="m411 59c0.3 0 9.6 9.1 20.8 20.3 11.1 11.1 20.2 20.9 20.2 21.7-0.1 0.8-1.3 3.2-2.8 5.2-1.5 2-5.3 6.7-8.5 10.5-4.2 4.8-8 11.1-13.2 21.8-4.1 8.3-10.3 23.3-14 33.5-3.6 10.2-8 22.3-9.8 26.9-1.8 4.6-3.5 8.5-4 8.7-0.4 0.2-2.2-0.9-7.2-5.5l4.4-12.8c2.4-7 7-20 10.2-28.8 3.3-8.8 8.6-21.4 11.9-28 3.2-6.6 8-14.7 10.5-18 4.4-5.8 4.5-6 2.3-6.7-1.3-0.3-6.7-0.6-12.1-0.7-6.8-0.1-10.8-0.6-13.4-1.8-3.2-1.4-8.1-1.8-54.8-2.5l-20.3 6.6c-15.7 5.1-20.6 6.4-22.2 5.6-1.1-0.5-2-1.3-2-1.7-0.1-0.5 2.1-1.8 4.7-2.9 2.6-1.2 11.5-4.5 19.8-7.4 8.2-2.9 21.3-7.8 29-10.9 7.7-3.1 16.9-7.3 20.5-9.3 3.6-2 9.2-5.6 12.5-8.1 3.3-2.5 8.5-7.1 11.5-10.1 3-3.1 5.7-5.6 6-5.6z"/>
        <path id="Path 3" class="s2"
              d="m438.9 16c0.6 0 12.7 11.5 26.9 25.5 14.1 14 26.9 27 31.2 32.5l-11.5 11.5c-6.3 6.3-11.9 11.5-12.5 11.5-0.5 0-13-11.8-27.6-26.3-14.6-14.4-27.6-27.5-30.9-32l11.7-11.3c6.4-6.3 12.1-11.4 12.7-11.4zm-152.1 102.1c0.6-0.1 8.3 6.6 17 14.8 8.6 8.2 30.1 29.5 47.8 47.3 17.6 17.8 34.4 34.9 37.2 38.1 2.9 3.1 5.2 6.4 5.2 7.2 0 0.8-2.3 6.1-5.1 11.8-2.8 5.6-7.1 13.1-9.7 16.7-2.5 3.6-8.9 11.9-14.3 18.5-5.3 6.6-15 17.9-21.6 25-6.6 7.1-16.8 17.5-22.7 23-6 5.5-12.6 11.4-18.7 16l-6.2-6c-3.4-3.3-18.5-18.1-60.8-60h-5.5c-5.1 0-5.8-0.3-9-3.7-2.9-3.2-3.4-4.5-3.4-8.5 0.1-4.8 0-4.8-13.5-19.3-7.5-8-16.8-18-27.5-30l13.3-14.7c7.2-8.1 18.8-19.8 25.7-26.1 6.9-6.3 18.8-16.4 26.5-22.5 7.7-6.1 17.6-13.4 22-16.3 4.4-2.9 11.1-6.6 15-8.3 3.9-1.6 7.6-3 8.3-3z"/>
    </g>
</svg>