<svg version="1.2" xmlns="http://www.w3.org/2000/svg" viewBox="0 0 1000 1000" width="1000" height="1000">
	<title>black-plus-sign-positive-symbol-vector-id688550958</title>
	<style>
		.s0 { fill: #010101 } 
	</style>
	<g id="Background">
		<path id="Path 1" class="s0" d="m962.3 46.7c8.8 9.8 19.8 25.7 24.6 35.8 4.8 10 9.8 27.9 11.3 39.7 1.5 11.9 1 30.1-1 40.4-1.9 10.3-6.9 26.5-10.9 36-7.3 17-9.1 18.9-289.4 301.4l131.4 131.5c72.3 72.3 137 139 143.9 148.2 6.8 9.2 15.7 26.4 19.8 38.4 4.1 12.3 7.2 31.5 7 44.4-0.1 12.4-2.9 30.9-6.2 41-3.3 10.3-12.3 27-20.2 37.8-10.8 14.8-18.3 22.3-31.9 31.8-9.8 6.9-26.3 15.5-36.8 19.2-10.4 3.8-29.2 6.9-41.7 7.1-13.7 0.1-31.3-2.8-44.2-7.4-11.8-4.2-28-12.1-36-17.6-9.1-6.2-65.7-61.1-282-277.5l-133.7 133.7c-82.6 82.7-139.2 137.6-148.3 143.8-8 5.5-24.2 13.4-36 17.6-12.9 4.6-30.5 7.5-44.2 7.4-12.5-0.2-31.7-3.5-42.6-7.3-10.9-3.9-28-13-37.9-20.3-13.3-9.9-21.4-18.2-30.9-31.7-7.2-10.1-15.5-25.9-18.6-35.2-3.1-9.2-6.1-25.8-6.8-36.8-0.6-11.1 1.4-29.7 4.5-41.4 3.1-11.7 10.8-29.6 17.3-39.7 9.7-15.3 35-41.7 280.3-287l-132.6-132.6c-77.7-77.7-137.2-139.1-143.7-148.3-6.2-8.6-14.7-25.3-18.9-37.1-4.5-12.8-7.4-30.6-7.3-44.2 0.2-12.5 3.3-31.3 7.1-41.7 3.7-10.5 12.8-27.5 20.3-37.9 10.5-14.8 17.4-21.7 31.3-31.4 9.8-6.8 26.3-15.3 36.7-19 10.4-3.6 29.1-6.7 41.5-6.9 13-0.1 32 3 44.4 7.2 11.9 4.1 28.7 12.4 37.3 18.6 8.9 6.5 72.2 67.8 280.8 276.4l131.5-131.4c73-73 139-137 148.2-143.8 9.2-6.8 26.4-15.8 38.3-20 13.1-4.6 30.4-7.4 44.3-7.1 12.6 0.2 30.3 3 39.4 6 9.1 3.1 22.8 9.4 30.6 13.9 7.8 4.7 21.1 16.2 30 26z"/>
	</g>
</svg>