<svg version="1.2" xmlns="http://www.w3.org/2000/svg" viewBox="0 0 1000 1000" width="1000" height="1000">
    <title>image</title>
    <style>
        .s0 { fill: #010101 }
    </style>
    <g id="Background">
        <path id="Path 1" class="s0"
              d="m504.9 1c10.1 0.5 24.8 3.2 32.9 6.1 8.1 2.9 20.6 9.8 27.8 15.5 7.3 5.7 17 15.8 21.5 22.5 4.6 6.7 10.7 18.3 13.6 25.6 5.3 13.3 5.4 15.3 6.6 322h143.3c78.8 0.1 150.4 1.1 159.2 2.4 8.7 1.3 22.9 5.8 31.7 10.1 9 4.5 21.1 13.3 28 20.4 6.7 6.8 15.3 18.4 19 25.7 3.8 7.4 8 21.4 9.6 31.6 2.2 14 2.1 22.2-0.1 34.8-1.6 9-5.9 22.8-9.5 30.5-3.7 7.7-12.2 19.6-18.9 26.5-7.4 7.6-18.6 15.6-28.1 20.1-8.8 4.2-21.9 8.7-29.3 10-8.3 1.6-69.1 2.6-304.9 2.5v145.7c0.1 90.1-0.9 150.9-2.5 159.2-1.3 7.4-5.8 20.5-10 29.3-4.5 9.5-12.5 20.7-20.1 28.1-6.9 6.7-19.1 15.4-27.1 19.2-8.1 3.9-22.4 8.2-31.7 9.6-12.6 1.8-21.6 1.7-34.2-0.4-9.4-1.7-22.6-5.7-29.3-9.1-6.7-3.3-17.4-10.7-23.7-16.4-6.4-5.7-15.4-16.9-20.1-24.9-4.8-8.1-10.3-22.1-12.3-31.1-3-13.7-3.6-41.8-3.6-309.2h-144.5c-84.7 0-150.6-1-159.2-2.4-8-1.4-21.7-5.9-30.5-10-9.4-4.6-20.8-12.7-28.1-20.2-6.7-6.9-15.2-18.8-18.9-26.5-3.6-7.7-7.9-22-9.6-31.7-2.2-13.8-2.2-21.4 0-34.2 1.7-9 6-22.7 9.7-30.4 3.7-7.6 12.2-19.5 18.9-26.3 6.9-7.2 19-15.9 28-20.3 8.8-4.3 22.5-8.9 30.5-10.2 8.4-1.4 76.3-2.4 303.7-2.4v-143.3c0.1-79.6 1.1-150.4 2.4-159.2 1.3-8.7 5.8-22.9 10-31.7 4.6-9.6 12.6-20.6 20.3-28 7-6.7 18.1-14.9 24.7-18.2 6.7-3.3 17.6-7.4 24.3-9.1 6.8-1.7 20.3-2.7 30.5-2.2z"/>
    </g>
</svg>